<svg width="219" height="120" viewBox="0 0 219 120" fill="none" xmlns="http://www.w3.org/2000/svg">
<circle cx="89.082" cy="60.082" r="61.1827" stroke="#FE5955" stroke-opacity="0.5" stroke-width="17.7986"/>
<circle cx="89" cy="60" r="126" stroke="#FE5955" stroke-opacity="0.08" stroke-width="8"/>
<circle cx="89" cy="60" r="95" stroke="#FE5955" stroke-opacity="0.2" stroke-width="40"/>
<path fill-rule="evenodd" clip-rule="evenodd" d="M89.055 106.11C114.49 106.11 135.11 85.4905 135.11 60.055C135.11 34.6195 114.49 14 89.055 14C63.6195 14 43 34.6195 43 60.055C43 85.4905 63.6195 106.11 89.055 106.11ZM88.4578 29.1314C85.8891 29.1432 83.4364 29.3599 81.2795 29.7378C74.9195 30.8493 73.7651 33.1747 73.7651 37.4652V43.1305H88.7884V45.0186H73.7651H68.1279C63.7616 45.0186 59.9354 47.6151 58.7419 52.552C57.3622 58.2117 57.3012 61.7484 58.7419 67.6576C59.8099 72.0579 62.3607 75.191 66.727 75.191H71.893V68.4004C71.893 63.4945 76.1836 59.1652 81.279 59.1652H96.2854C100.463 59.1652 103.8 55.7627 103.8 51.6151V37.463C103.8 33.4352 100.365 30.4119 96.2854 29.7356C93.7044 29.3106 91.0264 29.1175 88.4572 29.1292L88.4578 29.1314ZM80.3325 33.6874C81.8847 33.6874 83.1517 34.9619 83.1517 36.5284C83.1517 38.0894 81.8842 39.3522 80.3325 39.3522C78.7753 39.3522 77.5134 38.09 77.5134 36.5284C77.5134 34.9619 78.7753 33.6874 80.3325 33.6874ZM105.673 45.0139V51.616C105.673 56.7331 101.287 61.0397 96.2866 61.0397H81.2802C77.1694 61.0397 73.7657 64.5198 73.7657 68.5897V82.7419C73.7657 86.7697 77.3067 89.1389 81.2802 90.2919C86.036 91.6755 90.599 91.9255 96.2866 90.2919C100.069 89.2087 103.801 87.028 103.801 82.7419V77.0766H88.7946V75.1885H103.801H111.315C115.682 75.1885 117.311 72.1757 118.83 67.6551C120.398 62.9993 120.332 58.5197 118.83 52.5495C117.751 48.2496 115.69 45.0161 111.315 45.0161H105.678L105.673 45.0139ZM97.2336 80.8571C98.7909 80.8571 100.053 82.1194 100.053 83.6809C100.053 85.2475 98.7909 86.5219 97.2336 86.5219C95.6814 86.5219 94.4145 85.2475 94.4145 83.6809C94.4145 82.1199 95.682 80.8571 97.2336 80.8571Z" fill="#FE5955"/>
</svg>
