<svg width="48" height="48" viewBox="0 0 48 48" fill="none" xmlns="http://www.w3.org/2000/svg">
  <rect width="48" height="48" rx="10" fill="white" fill-opacity="0.2"/>
  <path d="M37 39H11C9.34635 39 8 37.6536 8 36V12C8 10.3464 9.34635 9 11 9H37C38.6536 9 40 10.3464 40 12V36C40 37.6536 38.6536 39 37 39ZM11 11C10.4492 11 10 11.4492 10 12V36C10 36.5508 10.4492 37 11 37H37C37.5508 37 38 36.5508 38 36V12C38 11.4492 37.5508 11 37 11H11Z" fill="white"/>
  <path d="M15 13C14.4479 13 14 12.5521 14 12V8C14 7.44792 14.4479 7 15 7C15.5521 7 16 7.44792 16 8V12C16 12.5521 15.5521 13 15 13Z" fill="white"/>
  <path d="M33 13C32.4479 13 32 12.5521 32 12V8C32 7.44792 32.4479 7 33 7C33.5521 7 34 7.44792 34 8V12C34 12.5521 33.5521 13 33 13Z" fill="white"/>
  <path d="M31 32H25C24.4479 32 24 31.5521 24 31C24 30.4479 24.4479 30 25 30H31C31.5521 30 32 30.4479 32 31C32 31.5521 31.5521 32 31 32Z" fill="white"/>
  <path d="M31 22H25C24.4479 22 24 21.5521 24 21C24 20.4479 24.4479 20 25 20H31C31.5521 20 32 20.4479 32 21C32 21.5521 31.5521 22 31 22Z" fill="white"/>
  <path d="M17 34C16.7357 34 16.4805 33.8959 16.293 33.7071L13.293 30.7071C12.9023 30.3164 12.9023 29.6836 13.293 29.293C13.6836 28.9024 14.3164 28.9024 14.707 29.293L16.8919 31.4779L20.401 26.7995C20.7292 26.3581 21.3568 26.2657 21.8008 26.6003C22.2422 26.931 22.332 27.5586 22 28L17.7995 33.6003C17.6263 33.8321 17.3594 33.9766 17.0703 33.9974C17.0469 33.9987 17.0234 34 17 34Z" fill="white"/>
  <path d="M17 23.6004C16.7357 23.6004 16.4805 23.4962 16.293 23.3074L13.293 20.3074C12.9023 19.9168 12.9023 19.284 13.293 18.8934C13.6836 18.5027 14.3164 18.5027 14.707 18.8934L16.8919 21.0782L20.401 16.3999C20.7292 15.9585 21.3568 15.866 21.8008 16.2006C22.2422 16.5314 22.332 17.159 22 17.6004L17.7995 23.2006C17.6263 23.4324 17.3594 23.5769 17.0703 23.5978C17.0469 23.5991 17.0234 23.6004 17 23.6004Z" fill="white"/>
</svg>
