<svg width="48" height="48" viewBox="0 0 48 48" fill="none" xmlns="http://www.w3.org/2000/svg">
  <rect width="48" height="48" rx="10" fill="white" fill-opacity="0.2"/>
  <path d="M22.9431 41C22.6637 41 22.3925 40.89 22.1919 40.6887C21.9401 40.4376 21.8322 40.0772 21.9014 39.7293L22.9639 34.4168C23.0054 34.2107 23.1064 34.0218 23.2544 33.8738L34.0649 23.0648C35.5853 21.5402 38.2817 21.5381 39.8049 23.0655C41.3986 24.6613 41.3959 27.2366 39.8118 28.8172L29.0069 39.6262C28.8589 39.7743 28.6693 39.8759 28.4646 39.9167L23.152 40.9792C23.0829 40.9931 23.0123 41 22.9431 41ZM28.2557 38.875H28.2695H28.2557ZM24.9838 35.1486L24.2976 38.5831L27.7313 37.8962L38.3093 27.3148C38.3093 27.3148 38.3093 27.3141 38.3107 27.3141C39.0647 26.5601 39.0675 25.333 38.3135 24.5776C37.5623 23.8278 36.2936 23.8402 35.5673 24.5665L24.9838 35.1486Z" fill="white"/>
  <path d="M18.6876 36.75H10.1875C8.43051 36.75 7 35.3202 7 33.5625V10.1875C7 8.42981 8.43051 7 10.1875 7H31.4376C33.1946 7 34.6251 8.42981 34.6251 10.1875V19.75C34.6251 20.3366 34.1492 20.8125 33.5626 20.8125C32.976 20.8125 32.5001 20.3366 32.5001 19.75V10.1875C32.5001 9.6016 32.0228 9.125 31.4376 9.125H10.1875C9.60231 9.125 9.12501 9.6016 9.12501 10.1875V33.5625C9.12501 34.1484 9.60231 34.625 10.1875 34.625H18.6876C19.2741 34.625 19.7501 35.1009 19.7501 35.6875C19.7501 36.2741 19.2741 36.75 18.6876 36.75Z" fill="white"/>
  <path d="M27.1875 15.5H18.6875C18.1009 15.5 17.625 15.0241 17.625 14.4375C17.625 13.8509 18.1009 13.375 18.6875 13.375H27.1875C27.7741 13.375 28.2501 13.8509 28.2501 14.4375C28.2501 15.0241 27.7741 15.5 27.1875 15.5Z" fill="white"/>
  <path d="M27.1876 21.875H14.4375C13.8509 21.875 13.375 21.3991 13.375 20.8125C13.375 20.2259 13.8509 19.75 14.4375 19.75H27.1876C27.7742 19.75 28.2501 20.2259 28.2501 20.8125C28.2501 21.3991 27.7742 21.875 27.1876 21.875Z" fill="white"/>
  <path d="M25.0626 28.25H14.4375C13.8509 28.25 13.375 27.7741 13.375 27.1875C13.375 26.6009 13.8509 26.125 14.4375 26.125H25.0626C25.6492 26.125 26.1251 26.6009 26.1251 27.1875C26.1251 27.7741 25.6492 28.25 25.0626 28.25Z" fill="white"/>
</svg>
