<svg width="48" height="48" viewBox="0 0 48 48" fill="none" xmlns="http://www.w3.org/2000/svg">
  <rect width="48" height="48" rx="10" fill="white" fill-opacity="0.2"/>
  <g clip-path="url(#clip0)">
    <path d="M39.6001 32.4001C38.9376 32.4001 38.4001 31.8626 38.4001 31.2001V13.2001C38.4001 12.5384 37.861 12.0001 37.2001 12.0001H10.8001C10.1391 12.0001 9.60007 12.5384 9.60007 13.2001V31.2001C9.60007 31.8626 9.06257 32.4001 8.40007 32.4001C7.73757 32.4001 7.20007 31.8626 7.20007 31.2001V13.2001C7.20007 11.2149 8.8157 9.6001 10.8001 9.6001H37.2001C39.1844 9.6001 40.8001 11.2149 40.8001 13.2001V31.2001C40.8001 31.8626 40.2626 32.4001 39.6001 32.4001Z" fill="white"/>
    <path d="M37.2001 39.6H10.8C7.49224 39.6 4.80005 36.9086 4.80005 33.6V31.2C4.80005 30.5375 5.33755 30 6.00005 30H19.8657C20.2969 30 20.6938 30.2312 20.9079 30.6055C21.5391 31.7117 22.725 32.3992 24 32.3992C25.275 32.3992 26.4594 31.7117 27.0922 30.6039C27.3063 30.2305 27.7032 30 28.1344 30H42C42.6625 30 43.2001 30.5375 43.2001 31.2V33.6C43.2001 36.9086 40.5079 39.6 37.2001 39.6ZM7.20005 32.4V33.6C7.20005 35.5852 8.81567 37.2 10.8 37.2H37.2001C39.1844 37.2 40.8 35.5852 40.8 33.6V32.4H28.7797C27.6641 33.8953 25.8907 34.7992 24 34.7992C22.1079 34.7992 20.3344 33.8953 19.2204 32.4H7.20005Z" fill="white"/>
    <path d="M21.6969 26.4002C21.2548 26.4002 20.8126 26.2853 20.4173 26.0588C19.6782 25.64 19.2094 24.8447 19.2001 23.9877V18.0259C19.2094 17.1572 19.6782 16.3627 20.4219 15.9392C21.1438 15.5228 22.0298 15.4861 22.7891 15.8439C22.7891 15.8447 22.7907 15.8447 22.7907 15.8447L28.3735 18.4798C29.3485 18.9056 30.0001 19.9009 30.0001 21.0002C30.0001 22.0994 29.3485 23.0947 28.3423 23.5345L22.7907 26.1556C22.4438 26.3189 22.0704 26.4002 21.6969 26.4002ZM21.6969 18.0002C21.6688 18.0002 21.6391 18.008 21.6141 18.0228L21.6001 23.9744L22.2782 25.0705L21.7657 23.9853L27.3485 21.3502C27.5141 21.2775 27.6001 21.1455 27.6001 21.0002C27.6001 20.8548 27.5141 20.7228 27.3798 20.6642L21.7657 18.015C21.7438 18.0048 21.7204 18.0002 21.6969 18.0002Z" fill="white"/>
  </g>
  <defs>
    <clipPath id="clip0">
      <rect width="38.4" height="30" fill="white" transform="translate(4.80005 9.6001)"/>
    </clipPath>
  </defs>
</svg>
