<svg width="48" height="48" viewBox="0 0 48 48" fill="none" xmlns="http://www.w3.org/2000/svg">
  <rect width="48" height="48" rx="10" fill="white" fill-opacity="0.2"/>
  <path d="M40.8748 40.9999H7.12497C6.50389 40.9999 6 40.4909 6 39.8636C6 39.2363 6.50389 38.7273 7.12497 38.7273H40.8748C41.4959 38.7273 41.9998 39.2363 41.9998 39.8636C41.9998 40.4909 41.4959 40.9999 40.8748 40.9999Z" fill="white"/>
  <path d="M16.1247 41.0001H9.37485C8.75377 41.0001 8.24988 40.4911 8.24988 39.8638V32.2277C8.24988 30.9997 9.25913 30.001 10.4998 30.001H14.9997C16.2404 30.001 17.2504 30.9997 17.2504 32.2277V39.8638C17.2504 40.4911 16.7465 41.0001 16.1247 41.0001ZM10.4998 38.7275H14.9997V32.2736H10.4998V38.7275Z" fill="white"/>
  <path d="M27.3752 41H20.6253C20.0043 41 19.5004 40.491 19.5004 39.8637V21.3188C19.5004 20.0907 20.5096 19.092 21.7503 19.092H26.2502C27.4909 19.092 28.5001 20.0907 28.5001 21.3188V39.8637C28.5001 40.491 27.9962 41 27.3752 41ZM21.7503 38.7274H26.2502V21.3647H21.7503V38.7274Z" fill="white"/>
  <path d="M38.6249 41H31.8751C31.254 41 30.7501 40.4911 30.7501 39.8637V25.6821C30.7501 24.454 31.7594 23.4553 33.0001 23.4553H37.4999C38.7406 23.4553 39.7499 24.454 39.7499 25.6821V39.8637C39.7499 40.4911 39.246 41 38.6249 41ZM33.0001 38.7274H37.4999V25.7279H33.0001V38.7274Z" fill="white"/>
  <path d="M40.8748 14.819C40.2537 14.819 39.7498 14.31 39.7498 13.6827V8.27335H34.125C33.5039 8.27335 33 7.76438 33 7.13704C33 6.5097 33.5039 6.00073 34.125 6.00073H40.8748C41.4959 6.00073 41.9998 6.5097 41.9998 7.13704V13.6827C41.9998 14.31 41.4959 14.819 40.8748 14.819Z" fill="white"/>
  <path d="M9.37496 23.55C9.0798 23.55 8.78391 23.4331 8.56346 23.2008C8.13281 22.748 8.14745 22.029 8.59568 21.594L17.3442 13.1116C18.4721 12.0167 20.123 11.5847 21.661 11.9827L30.2243 14.2021C31.0665 14.4521 31.9307 14.2361 32.5196 13.6635L40.0956 6.31743C40.5438 5.88096 41.2542 5.89724 41.6863 6.34998C42.117 6.80273 42.1023 7.5218 41.6541 7.9568L34.0781 15.3029C32.9122 16.4347 31.2071 16.8534 29.6325 16.3948L21.1014 14.1843C20.3148 13.9846 19.4741 14.1991 18.9028 14.751L10.1542 23.2333C9.93598 23.4449 9.65547 23.55 9.37496 23.55Z" fill="white"/>
</svg>
