<svg width="48" height="48" viewBox="0 0 48 48" fill="none" xmlns="http://www.w3.org/2000/svg">
  <rect width="48" height="48" rx="10" fill="white" fill-opacity="0.2"/>
  <path d="M8.06231 36.756C7.78699 36.756 7.51444 36.6489 7.31107 36.4451C6.99286 36.1273 6.90985 35.6443 7.10354 35.2388L10.6439 27.8091C8.14117 23.391 8.2477 17.8495 10.9621 13.5288C13.7831 9.04016 18.9989 6.50741 24.288 7.08015C29.5633 7.6515 34.1289 11.2434 35.9191 16.2315C36.117 16.7828 35.8292 17.3908 35.2772 17.5883C34.7265 17.7832 34.1164 17.4985 33.9186 16.9472C32.4009 12.7191 28.5312 9.67438 24.0584 9.19008C19.5869 8.7037 15.1528 10.8516 12.7634 14.6563C10.3728 18.4609 10.3672 23.3813 12.7482 27.1922C12.9405 27.4989 12.9627 27.8831 12.8063 28.2098L10.3077 33.4515L15.5567 30.9561C15.8832 30.7999 16.2651 30.822 16.575 31.0134C17.9267 31.8542 19.407 32.4055 20.9787 32.6529C21.5584 32.7441 21.9541 33.2871 21.8627 33.866C21.77 34.445 21.2319 34.8415 20.6466 34.749C18.9878 34.4878 17.4134 33.9393 15.958 33.1157L8.51886 36.653C8.3736 36.7221 8.21726 36.756 8.06231 36.756Z" fill="white"/>
  <path d="M27.1878 17.6541H16.5625C15.9759 17.6541 15.5 17.1788 15.5 16.5929C15.5 16.0071 15.9759 15.5317 16.5625 15.5317H27.1878C27.7744 15.5317 28.2504 16.0071 28.2504 16.5929C28.2504 17.1788 27.7744 17.6541 27.1878 17.6541Z" fill="white"/>
  <path d="M20.8126 24.021H16.5625C15.9759 24.021 15.5 23.5457 15.5 22.9599C15.5 22.374 15.9759 21.8987 16.5625 21.8987H20.8126C21.3993 21.8987 21.8752 22.374 21.8752 22.9599C21.8752 23.5457 21.3993 24.021 20.8126 24.021Z" fill="white"/>
  <path d="M38.9877 40.9999C38.794 40.9999 38.6017 40.9474 38.4301 40.8417L33.8286 38.0084C30.7434 38.548 27.5337 37.3527 25.5622 34.887C23.4966 32.3066 23.0885 28.7154 24.5232 25.7378C25.9593 22.7608 29.0223 20.8374 32.3289 20.8374C32.3413 20.8374 32.3552 20.8374 32.3676 20.8374C35.7517 20.8374 38.8355 22.8216 40.2328 25.9015C41.5624 28.8343 41.1363 32.2596 39.1675 34.773L40.035 39.757C40.1056 40.1688 39.9299 40.5833 39.584 40.8175C39.4041 40.9391 39.1952 40.9999 38.9877 40.9999ZM34.0292 35.8245C34.2243 35.8245 34.418 35.8784 34.5868 35.9821L37.5378 37.7991L36.9899 34.6535C36.9346 34.3357 37.0273 34.0096 37.2417 33.7685C38.9393 31.8527 39.3543 29.1085 38.2959 26.7775C37.2431 24.4555 34.9188 22.9598 32.3676 22.9598C32.3552 22.9598 32.3372 22.9584 32.333 22.9598H32.3289C29.8331 22.9598 27.5212 24.4113 26.4379 26.658C25.356 28.9047 25.6632 31.615 27.2224 33.5626C28.7816 35.513 31.3674 36.4097 33.7913 35.8515C33.8701 35.8335 33.9504 35.8245 34.0292 35.8245ZM32.333 21.8986H32.3469H32.333Z" fill="white"/>
  <path d="M34.6255 28.2659H30.3754C29.7888 28.2659 29.3129 27.7906 29.3129 27.2047C29.3129 26.6189 29.7888 26.1436 30.3754 26.1436H34.6255C35.2121 26.1436 35.688 26.6189 35.688 27.2047C35.688 27.7906 35.2121 28.2659 34.6255 28.2659Z" fill="white"/>
  <path d="M34.6255 32.5105H30.3754C29.7888 32.5105 29.3129 32.0352 29.3129 31.4494C29.3129 30.8635 29.7888 30.3882 30.3754 30.3882H34.6255C35.2121 30.3882 35.688 30.8635 35.688 31.4494C35.688 32.0352 35.2121 32.5105 34.6255 32.5105Z" fill="white"/>
</svg>
