<svg width="330" height="330" viewBox="0 0 330 330" fill="none" xmlns="http://www.w3.org/2000/svg">
<path fill-rule="evenodd" clip-rule="evenodd" d="M385 137.5C385 243.815 298.815 330 192.5 330C86.1852 330 0 243.815 0 137.5C0 31.1852 86.1852 -55 192.5 -55C298.815 -55 385 31.1852 385 137.5ZM191.617 5.86137C182.133 5.90832 173.078 6.76988 165.115 8.2726C141.633 12.6917 137.371 21.9377 137.371 38.997V61.5223H192.837V69.0293H137.371H116.559C100.438 69.0293 86.3118 79.353 81.9052 98.9822C76.8116 121.486 76.5861 135.547 81.9052 159.042C85.8484 176.538 95.2658 188.995 111.386 188.995H130.459V161.996C130.459 142.49 146.3 125.276 165.113 125.276H220.516C235.94 125.276 248.26 111.748 248.26 95.2574V38.9882C248.26 22.9736 235.578 10.9527 220.516 8.26378C210.987 6.57394 201.1 5.80627 191.615 5.85256L191.617 5.86137ZM161.618 23.9764C167.349 23.9764 172.027 29.0435 172.027 35.2721C172.027 41.4787 167.347 46.4995 161.618 46.4995C155.869 46.4995 151.21 41.4809 151.21 35.2721C151.21 29.0435 155.869 23.9764 161.618 23.9764ZM255.172 95.2606V69.0105L255.193 69.0193H276.005C292.155 69.0193 299.764 81.8755 303.749 98.9722C309.293 122.71 309.539 140.521 303.749 159.032C298.142 177.006 292.126 188.985 276.005 188.985H248.262H192.858V196.492H248.262V219.018C248.262 236.059 234.483 244.73 220.519 249.037C199.52 255.532 182.673 254.538 165.115 249.037C150.444 244.452 137.371 235.032 137.371 219.018V162.748C137.371 146.566 149.937 132.729 165.115 132.729H220.519C238.981 132.729 255.172 115.606 255.172 95.2606ZM234.423 222.751C234.423 216.542 229.764 211.524 224.015 211.524C218.286 211.524 213.607 216.545 213.607 222.751C213.607 228.98 218.284 234.047 224.015 234.047C229.764 234.047 234.423 228.98 234.423 222.751Z" fill="white" fill-opacity="0.2"/>
</svg>
