<svg width="215" height="50" viewBox="0 0 215 50" fill="none" xmlns="http://www.w3.org/2000/svg">
  <path d="M10.5923 25.2H19.0427C20.3278 25.2 21.4117 24.7846 22.2944 23.9538C23.1901 23.123 23.6379 21.9418 23.6379 20.4101C23.6379 19.2807 23.1706 18.2682 22.236 17.3726C21.3014 16.4639 20.237 16.0096 19.0427 16.0096H7.0096V41.2442H5.60768V14.6077H19.0427C20.6264 14.6077 22.0218 15.1983 23.229 16.3796C24.4362 17.5478 25.0398 18.8913 25.0398 20.4101C25.0398 22.2793 24.4557 23.7786 23.2874 24.9079C22.1192 26.0372 20.7043 26.6019 19.0427 26.6019H10.5923V25.2ZM10.5923 28.0038H19.0427C21.0677 28.0038 22.8072 27.2964 24.261 25.8815C25.7148 24.4536 26.4418 22.6298 26.4418 20.4101C26.4418 18.5019 25.6954 16.8274 24.2026 15.3865C22.7228 13.9327 21.0028 13.2058 19.0427 13.2058H4.20576V41.2442H2.80384V11.8038H19.0427C20.5875 11.8038 22.0348 12.1998 23.3848 12.9916C24.7478 13.7834 25.8317 14.8478 26.6365 16.1848C27.4413 17.5089 27.8437 18.9173 27.8437 20.4101C27.8437 22.9673 26.974 25.1091 25.2346 26.8355C23.5081 28.549 21.4442 29.4057 19.0427 29.4057H10.5923V28.0038ZM10.5923 30.8076H19.0427C20.8601 30.8076 22.5475 30.3598 24.1052 29.4641C25.6629 28.5685 26.9091 27.3223 27.8437 25.7257C28.7783 24.1161 29.2456 22.3442 29.2456 20.4101C29.2456 18.6577 28.7783 17.0156 27.8437 15.4839C26.9221 13.9392 25.6759 12.706 24.1052 11.7844C22.5346 10.8627 20.8471 10.4019 19.0427 10.4019H1.40192V41.2442H0V9H19.0427C21.0807 9 22.9954 9.52572 24.7867 10.5772C26.5781 11.6156 27.9995 13.0175 29.0509 14.7829C30.1153 16.5353 30.6475 18.411 30.6475 20.4101C30.6475 22.7206 30.1478 24.7521 29.1483 26.5045C28.1617 28.2569 26.8182 29.6264 25.1177 30.6129L28.7394 41.2442H27.2596L23.7937 31.275C23.2745 31.4826 22.8786 31.6254 22.606 31.7033L25.8576 41.2442H24.3778L21.204 32.0343C21.0872 32.0603 20.6718 32.1057 19.9579 32.1706L22.9759 41.2442H21.4961L18.517 32.2096H17.2514L20.0942 41.2442H18.6144L15.7521 32.2096H10.5923V30.8076ZM9.81344 41.2442H8.41152V17.4115H19.0427C19.9125 17.4115 20.6588 17.7101 21.2819 18.3072C21.918 18.8913 22.236 19.5923 22.236 20.4101C22.236 22.6687 21.1716 23.798 19.0427 23.798H10.5923V22.3961H19.0427C19.6009 22.3961 20.0358 22.2533 20.3473 21.9678C20.6718 21.6692 20.8341 21.15 20.8341 20.4101C20.8341 19.9557 20.6588 19.5793 20.3084 19.2807C19.9709 18.9692 19.549 18.8134 19.0427 18.8134H9.81344V41.2442Z" fill="white"/>
  <path d="M40.6557 41.2442H39.2538V9H40.6557V41.2442ZM37.8518 41.2442H36.4499V9H37.8518V41.2442ZM35.048 41.2442H33.6461V9H35.048V41.2442ZM43.4595 34.2346H58.3744V35.6365H43.4595V37.0384H58.3744V38.4403H43.4595V39.8422H58.3744V41.2442H42.0576V9H58.3744V10.4019H43.4595V11.8038H58.3744V13.2058H43.4595V14.6077H58.3744V16.0096H43.4595V21.6173H51.1117V23.0192H43.4595V24.4211H51.1117V25.823H43.4595V27.225H51.1117V28.6269H43.4595V34.2346Z" fill="white"/>
  <path d="M86.2181 30.0093C86.2181 29.5031 86.0623 29.1656 85.7508 28.9968C85.4522 28.8281 85.0109 28.7437 84.4267 28.7437H75.3921V27.3418H84.4267C86.5556 27.3418 87.62 28.231 87.62 30.0093C87.62 31.0088 87.3279 31.7293 86.7438 32.1706C86.1597 32.612 85.3873 32.8326 84.4267 32.8326H75.3921V31.4307H84.4267C85.621 31.4307 86.2181 30.9569 86.2181 30.0093ZM74.6133 41.2442H73.2114V17.4115H84.4267C85.3094 17.4115 86.0623 17.6841 86.6854 18.2293C87.3085 18.7615 87.62 19.43 87.62 20.2348C87.62 21.2993 87.3279 22.0716 86.7438 22.5519C86.1597 23.0192 85.3873 23.2529 84.4267 23.2529H75.3921V21.8509H84.4267C85.621 21.8509 86.2181 21.3122 86.2181 20.2348C86.2181 19.7935 86.0493 19.4495 85.7118 19.2029C85.3743 18.9432 84.946 18.8134 84.4267 18.8134H74.6133V41.2442ZM75.3921 24.6548H84.4267C85.7118 24.6548 86.7957 24.2718 87.6784 23.506C88.5741 22.7271 89.0219 21.6368 89.0219 20.2348C89.0219 19.1055 88.5546 18.119 87.62 17.2752C86.6984 16.4315 85.634 16.0096 84.4267 16.0096H71.8095V41.2442H70.4075V14.6077H84.4267C86.0234 14.6077 87.4188 15.1723 88.613 16.3017C89.8202 17.418 90.4238 18.7291 90.4238 20.2348C90.4238 21.4161 90.1448 22.448 89.5866 23.3307C89.0414 24.2134 88.3015 24.8949 87.3669 25.3752C89.4049 26.1021 90.4238 27.5819 90.4238 29.8146C90.4238 31.58 89.8397 32.9949 88.6714 34.0593C87.5032 35.1108 86.0883 35.6365 84.4267 35.6365H75.3921V34.2346H84.4267C85.7118 34.2346 86.7957 33.8516 87.6784 33.0858C88.5741 32.3069 89.0219 31.2165 89.0219 29.8146C89.0219 28.867 88.6844 28.0298 88.0094 27.3028C87.3344 26.5759 86.3414 26.154 85.0303 26.0372C84.9005 26.0502 84.6993 26.0567 84.4267 26.0567H75.3921V24.6548ZM93.2277 20.2348C93.2277 22.0521 92.5851 23.6942 91.3 25.161C92.5851 26.5889 93.2277 28.1401 93.2277 29.8146C93.2277 31.4372 92.8188 32.917 92.001 34.254C91.1962 35.5781 90.1188 36.61 88.7688 37.3499C87.4318 38.0769 85.9844 38.4403 84.4267 38.4403H75.3921V37.0384H84.4267C86.4517 37.0384 88.1912 36.3634 89.645 35.0134C91.0988 33.6504 91.8258 31.9175 91.8258 29.8146C91.8258 29.0617 91.6311 28.231 91.2416 27.3223C90.8652 26.4007 90.3395 25.6997 89.6645 25.2194C91.1053 23.8694 91.8258 22.2079 91.8258 20.2348C91.8258 18.3396 91.0859 16.6976 89.6061 15.3086C88.1263 13.9067 86.3998 13.2058 84.4267 13.2058H69.0056V41.2442H67.6037V11.8038H84.4267C85.9715 11.8038 87.4188 12.1868 88.7688 12.9526C90.1318 13.7055 91.2157 14.7375 92.0205 16.0485C92.8253 17.3466 93.2277 18.742 93.2277 20.2348ZM92.8967 25.2389C94.052 23.6942 94.6296 22.0262 94.6296 20.2348C94.6296 18.4824 94.1623 16.8533 93.2277 15.3476C92.3061 13.8288 91.0599 12.6281 89.4892 11.7454C87.9186 10.8498 86.2311 10.4019 84.4267 10.4019H66.2018V41.2442H64.7999V9H84.4267C86.4777 9 88.3924 9.50625 90.1707 10.5187C91.9621 11.5312 93.3835 12.9072 94.4349 14.6466C95.4993 16.3731 96.0315 18.2358 96.0315 20.2348C96.0315 22.143 95.4928 23.8175 94.4154 25.2584C95.4928 26.7512 96.0315 28.2699 96.0315 29.8146C96.0315 31.554 95.72 33.1507 95.0969 34.6045C94.4738 36.0454 93.6301 37.2461 92.5657 38.2067C91.5142 39.1672 90.2875 39.9136 88.8856 40.4458C87.4837 40.9781 85.9974 41.2442 84.4267 41.2442H75.3921V39.8422H84.4267C85.7897 39.8422 87.0943 39.5891 88.3404 39.0829C89.5866 38.5636 90.6705 37.8627 91.5921 36.98C92.5137 36.0973 93.2472 35.0329 93.7923 33.7867C94.3505 32.5406 94.6296 31.2165 94.6296 29.8146C94.6296 29.1915 94.4803 28.4451 94.1818 27.5754C93.8962 26.6927 93.4678 25.9139 92.8967 25.2389Z" fill="white"/>
  <path d="M109.778 25.2H118.229C119.514 25.2 120.598 24.7846 121.48 23.9538C122.376 23.123 122.824 21.9418 122.824 20.4101C122.824 19.2807 122.356 18.2682 121.422 17.3726C120.487 16.4639 119.423 16.0096 118.229 16.0096H106.195V41.2442H104.794V14.6077H118.229C119.812 14.6077 121.208 15.1983 122.415 16.3796C123.622 17.5478 124.226 18.8913 124.226 20.4101C124.226 22.2793 123.642 23.7786 122.473 24.9079C121.305 26.0372 119.89 26.6019 118.229 26.6019H109.778V25.2ZM109.778 28.0038H118.229C120.254 28.0038 121.993 27.2964 123.447 25.8815C124.901 24.4536 125.628 22.6298 125.628 20.4101C125.628 18.5019 124.881 16.8274 123.388 15.3865C121.909 13.9327 120.189 13.2058 118.229 13.2058H103.392V41.2442H101.99V11.8038H118.229C119.773 11.8038 121.221 12.1998 122.571 12.9916C123.934 13.7834 125.018 14.8478 125.822 16.1848C126.627 17.5089 127.03 18.9173 127.03 20.4101C127.03 22.9673 126.16 25.1091 124.42 26.8355C122.694 28.549 120.63 29.4057 118.229 29.4057H109.778V28.0038ZM109.778 30.8076H118.229C120.046 30.8076 121.733 30.3598 123.291 29.4641C124.849 28.5685 126.095 27.3223 127.03 25.7257C127.964 24.1161 128.431 22.3442 128.431 20.4101C128.431 18.6577 127.964 17.0156 127.03 15.4839C126.108 13.9392 124.862 12.706 123.291 11.7844C121.72 10.8627 120.033 10.4019 118.229 10.4019H100.588V41.2442H99.1858V9H118.229C120.267 9 122.181 9.52572 123.973 10.5772C125.764 11.6156 127.185 13.0175 128.237 14.7829C129.301 16.5353 129.833 18.411 129.833 20.4101C129.833 22.7206 129.334 24.7521 128.334 26.5045C127.348 28.2569 126.004 29.6264 124.304 30.6129L127.925 41.2442H126.445L122.98 31.275C122.46 31.4826 122.064 31.6254 121.792 31.7033L125.043 41.2442H123.564L120.39 32.0343C120.273 32.0603 119.858 32.1057 119.144 32.1706L122.162 41.2442H120.682L117.703 32.2096H116.437L119.28 41.2442H117.8L114.938 32.2096H109.778V30.8076ZM108.999 41.2442H107.597V17.4115H118.229C119.098 17.4115 119.845 17.7101 120.468 18.3072C121.104 18.8913 121.422 19.5923 121.422 20.4101C121.422 22.6687 120.357 23.798 118.229 23.798H109.778V22.3961H118.229C118.787 22.3961 119.222 22.2533 119.533 21.9678C119.858 21.6692 120.02 21.15 120.02 20.4101C120.02 19.9557 119.845 19.5793 119.494 19.2807C119.157 18.9692 118.735 18.8134 118.229 18.8134H108.999V41.2442Z" fill="white"/>
  <path d="M146.754 31.7812L147.318 30.3793H152.108L152.673 31.7812H146.754ZM145.663 34.585L146.209 33.1831H153.199L153.802 34.585H145.663ZM144.573 37.3889L145.118 35.987H154.309L154.893 37.3889H144.573ZM133.182 41.2442H131.664L144.417 9H145.936L158.67 41.2442H157.171L145.177 10.8887L133.182 41.2442ZM145.352 14.2183L146.15 16.0096L136.181 41.2442H134.682L145.352 14.2183ZM146.91 17.9178L147.649 19.8454L139.218 41.2442H137.7L146.91 17.9178ZM148.389 21.773L149.129 23.7396L142.217 41.2442H140.718L148.389 21.773ZM167.724 41.2442H166.205L153.471 9H154.971L167.724 41.2442ZM151.953 9L164.706 41.2442H163.207L150.453 9H151.953ZM148.935 9L161.688 41.2442H160.169L147.435 9H148.935Z" fill="white"/>
  <path d="M178.589 9H179.991V41.2442H178.589V9ZM175.785 9H177.187V41.2442H175.785V9ZM172.981 9H174.383V41.2442H172.981V9ZM170.178 9H171.579V41.2442H170.178V9Z" fill="white"/>
  <path d="M206.589 25.7257L205.187 23.4086V9H206.589V25.7257ZM209.392 30.3209L207.99 27.9649V9H209.392V30.3209ZM212.196 34.9745L210.794 32.599V9H212.196V34.9745ZM192.102 24.5185L193.504 26.8355V41.2442H192.102V24.5185ZM189.298 19.9233L190.7 22.2793V41.2442H189.298V19.9233ZM186.494 15.2697L187.896 17.6452V41.2442H186.494V15.2697ZM186.981 9H188.617L208.438 41.2442H206.803L186.981 9ZM190.291 9H191.946L211.748 41.2442H210.074L190.291 9ZM193.582 9H195.217L213.598 38.966V9H215V41.2442C215 41.2442 214.448 41.2442 213.345 41.2442L193.582 9ZM185.092 11.2781V41.2442H183.69V9C183.69 9 184.249 9 185.365 9L205.128 41.2442H203.512L185.092 11.2781Z" fill="white"/>
</svg>
