<svg width="530" height="350" viewBox="0 0 530 350" fill="none" xmlns="http://www.w3.org/2000/svg">
<mask id="mask0" mask-type="alpha" maskUnits="userSpaceOnUse" x="0" y="0" width="530" height="350">
<rect width="530" height="350" rx="10" fill="url(#paint0_linear)"/>
</mask>
<g mask="url(#mask0)">
<path d="M509.5 425C586.544 425 649 362.544 649 285.5C649 208.456 586.544 146 509.5 146C432.456 146 370 208.456 370 285.5C370 362.544 432.456 425 509.5 425Z" fill="url(#paint1_linear)" fill-opacity="0.4"/>
<path d="M134.5 130C217.619 130 285 62.6189 285 -20.5C285 -103.619 217.619 -171 134.5 -171C51.3811 -171 -16 -103.619 -16 -20.5C-16 62.6189 51.3811 130 134.5 130Z" fill="url(#paint2_linear)" fill-opacity="0.3"/>
<path d="M8.5 230C34.1812 230 55 209.181 55 183.5C55 157.819 34.1812 137 8.5 137C-17.1812 137 -38 157.819 -38 183.5C-38 209.181 -17.1812 230 8.5 230Z" fill="url(#paint3_linear)" fill-opacity="0.3"/>
</g>
<defs>
<linearGradient id="paint0_linear" x1="0" y1="0" x2="530" y2="350" gradientUnits="userSpaceOnUse">
<stop stop-color="#112133"/>
<stop offset="1" stop-color="#0D1926"/>
</linearGradient>
<linearGradient id="paint1_linear" x1="429.533" y1="438" x2="429.533" y2="169.5" gradientUnits="userSpaceOnUse">
<stop stop-color="white" stop-opacity="0.4"/>
<stop offset="1" stop-color="white" stop-opacity="0.2"/>
</linearGradient>
<linearGradient id="paint2_linear" x1="48.2278" y1="144.025" x2="239" y2="109" gradientUnits="userSpaceOnUse">
<stop stop-color="white" stop-opacity="0.4"/>
<stop offset="1" stop-color="white" stop-opacity="0.2"/>
</linearGradient>
<linearGradient id="paint3_linear" x1="-18.1555" y1="234.333" x2="40.7874" y2="223.512" gradientUnits="userSpaceOnUse">
<stop stop-color="white" stop-opacity="0.4"/>
<stop offset="1" stop-color="white" stop-opacity="0.2"/>
</linearGradient>
</defs>
</svg>
