<svg width="172" height="34" viewBox="0 0 172 34" fill="none" xmlns="http://www.w3.org/2000/svg">
<path d="M0 11.9851H2.05844V15.2915H2.12276C2.34576 15.0084 2.63308 14.7897 2.98473 14.6353C3.33638 14.481 3.71805 14.4038 4.12974 14.4038C6.01664 14.4038 6.96009 15.493 6.96009 17.6715C6.96009 18.7779 6.65561 19.6271 6.04666 20.2189C5.4377 20.8021 4.57144 21.0937 3.44788 21.0937C2.91612 21.0937 2.43582 21.0422 2.00697 20.9393C1.57813 20.8364 1.26508 20.7163 1.06781 20.5791V12.8471H0V11.9851ZM4.00108 15.2657C3.48648 15.2657 3.0705 15.4115 2.75316 15.7032C2.43582 15.9948 2.20424 16.4065 2.05844 16.9382V19.8972C2.2557 20.0001 2.49156 20.0816 2.76602 20.1417C3.04048 20.2017 3.3278 20.2317 3.62799 20.2317C3.97107 20.2317 4.27983 20.1845 4.55429 20.0902C4.83732 19.9873 5.07748 19.8329 5.27474 19.6271C5.47201 19.4126 5.6221 19.1425 5.72502 18.8165C5.83652 18.4906 5.89227 18.1047 5.89227 17.6587C5.89227 17.3328 5.85797 17.024 5.78935 16.7324C5.72074 16.4408 5.60924 16.1877 5.45486 15.9733C5.30905 15.7503 5.11607 15.5788 4.87592 15.4587C4.63577 15.3301 4.34416 15.2657 4.00108 15.2657Z" fill="white" fill-opacity="0.5"/>
<path d="M11.6895 20.0001H12.1783L13.7736 14.5582H14.8157L13.0274 20.3346C12.9331 20.6348 12.8345 20.9736 12.7315 21.351C12.6372 21.7369 12.5 22.0972 12.3199 22.4317C12.1397 22.7662 11.8953 23.0492 11.5865 23.2808C11.2778 23.5123 10.8747 23.6281 10.3772 23.6281C10.2657 23.6281 10.1456 23.6153 10.017 23.5895C9.89691 23.5638 9.77683 23.5295 9.65676 23.4866C9.53668 23.4523 9.42518 23.4094 9.32226 23.358C9.21934 23.3065 9.14215 23.255 9.09069 23.2036L9.45091 22.2773C9.50238 22.3202 9.57099 22.3631 9.65676 22.4059C9.7511 22.4488 9.84974 22.4831 9.95266 22.5089C10.0642 22.5432 10.1714 22.5689 10.2743 22.5861C10.3772 22.6118 10.463 22.6246 10.5316 22.6246C11.1749 22.6246 11.6123 22.08 11.8438 20.9908H10.9819L8.28018 14.5582H9.43805L11.6895 20.0001Z" fill="white" fill-opacity="0.5"/>
<path d="M33.5541 17.0633H39.276C40.1462 17.0633 40.8801 16.782 41.4778 16.2195C42.0842 15.6569 42.3875 14.8571 42.3875 13.8199C42.3875 13.0553 42.0711 12.3697 41.4382 11.7632C40.8054 11.1479 40.0846 10.8403 39.276 10.8403H31.1282V27.9271H30.1789V9.89105H39.276C40.3483 9.89105 41.2932 10.291 42.1106 11.0908C42.928 11.8819 43.3367 12.7916 43.3367 13.8199C43.3367 15.0856 42.9412 16.1008 42.1502 16.8655C41.3591 17.6302 40.4011 18.0125 39.276 18.0125H33.5541V17.0633ZM33.5541 18.9618H39.276C40.6472 18.9618 41.825 18.4828 42.8094 17.5247C43.7938 16.5579 44.286 15.323 44.286 13.8199C44.286 12.5279 43.7806 11.3941 42.7698 10.4184C41.7678 9.434 40.6032 8.94179 39.276 8.94179H29.2296V27.9271H28.2804V7.99252H39.276C40.322 7.99252 41.302 8.2606 42.2161 8.79676C43.139 9.33292 43.8729 10.0537 44.4179 10.959C44.9628 11.8555 45.2353 12.8092 45.2353 13.8199C45.2353 15.5515 44.6464 17.0017 43.4686 18.1707C42.2996 19.331 40.9021 19.9111 39.276 19.9111H33.5541V18.9618ZM33.5541 20.8603H39.276C40.5065 20.8603 41.6492 20.5571 42.7039 19.9506C43.7586 19.3441 44.6024 18.5003 45.2353 17.4192C45.8681 16.3293 46.1845 15.1296 46.1845 13.8199C46.1845 12.6334 45.8681 11.5215 45.2353 10.4843C44.6112 9.43839 43.7674 8.60339 42.7039 7.97934C41.6404 7.35528 40.4977 7.04326 39.276 7.04326H27.3311V27.9271H26.3818V6.09399H39.276C40.656 6.09399 41.9524 6.44997 43.1653 7.16192C44.3783 7.86507 45.3407 8.81434 46.0527 10.0097C46.7734 11.1963 47.1338 12.4664 47.1338 13.8199C47.1338 15.3845 46.7954 16.76 46.1186 17.9466C45.4506 19.1332 44.5409 20.0605 43.3895 20.7285L45.8417 27.9271H44.8397L42.493 21.1767C42.1414 21.3174 41.8733 21.4141 41.6887 21.4668L43.8905 27.9271H42.8885L40.7395 21.6909C40.6603 21.7085 40.3791 21.7393 39.8957 21.7832L41.9392 27.9271H40.9372L38.92 21.8096H38.0631L39.988 27.9271H38.986L37.0479 21.8096H33.5541V20.8603ZM33.0267 27.9271H32.0774V11.7896H39.276C39.8649 11.7896 40.3703 11.9917 40.7922 12.3961C41.2229 12.7916 41.4382 13.2662 41.4382 13.8199C41.4382 15.3493 40.7175 16.114 39.276 16.114H33.5541V15.1647H39.276C39.654 15.1647 39.9484 15.0681 40.1593 14.8747C40.3791 14.6725 40.489 14.3209 40.489 13.8199C40.489 13.5123 40.3703 13.2574 40.133 13.0553C39.9045 12.8443 39.6188 12.7388 39.276 12.7388H33.0267V27.9271Z" fill="white" fill-opacity="0.5"/>
<path d="M53.9105 27.9271H52.9612V6.09399H53.9105V27.9271ZM52.012 27.9271H51.0627V6.09399H52.012V27.9271ZM50.1134 27.9271H49.1642V6.09399H50.1134V27.9271ZM55.809 23.1807H65.9081V24.13H55.809V25.0793H65.9081V26.0285H55.809V26.9778H65.9081V27.9271H54.8598V6.09399H65.9081V7.04326H55.809V7.99252H65.9081V8.94179H55.809V9.89105H65.9081V10.8403H55.809V14.6374H60.9904V15.5866H55.809V16.5359H60.9904V17.4852H55.809V18.4344H60.9904V19.3837H55.809V23.1807Z" fill="white" fill-opacity="0.5"/>
<path d="M84.7617 20.3198C84.7617 19.977 84.6562 19.7485 84.4453 19.6342C84.2431 19.5199 83.9443 19.4628 83.5487 19.4628H77.4312V18.5135H83.5487C84.9902 18.5135 85.7109 19.1156 85.7109 20.3198C85.7109 20.9966 85.5132 21.4844 85.1177 21.7832C84.7221 22.0821 84.1991 22.2315 83.5487 22.2315H77.4312V21.2822H83.5487C84.3574 21.2822 84.7617 20.9614 84.7617 20.3198ZM76.9039 27.9271H75.9546V11.7896H83.5487C84.1464 11.7896 84.6562 11.9742 85.0781 12.3433C85.5 12.7037 85.7109 13.1563 85.7109 13.7013C85.7109 14.422 85.5132 14.945 85.1177 15.2702C84.7221 15.5866 84.1991 15.7448 83.5487 15.7448H77.4312V14.7956H83.5487C84.3574 14.7956 84.7617 14.4308 84.7617 13.7013C84.7617 13.4024 84.6474 13.1695 84.4189 13.0025C84.1904 12.8267 83.9003 12.7388 83.5487 12.7388H76.9039V27.9271ZM77.4312 16.6941H83.5487C84.4189 16.6941 85.1528 16.4348 85.7505 15.9162C86.357 15.3889 86.6602 14.6506 86.6602 13.7013C86.6602 12.9366 86.3438 12.2686 85.7109 11.6973C85.0869 11.126 84.3661 10.8403 83.5487 10.8403H75.0054V27.9271H74.0561V9.89105H83.5487C84.6298 9.89105 85.5747 10.2734 86.3833 11.0381C87.2008 11.794 87.6095 12.6817 87.6095 13.7013C87.6095 14.5011 87.4205 15.1999 87.0425 15.7976C86.6734 16.3953 86.1724 16.8567 85.5395 17.1819C86.9195 17.6741 87.6095 18.6761 87.6095 20.1879C87.6095 21.3833 87.2139 22.3414 86.4229 23.0621C85.6318 23.774 84.6738 24.13 83.5487 24.13H77.4312V23.1807H83.5487C84.4189 23.1807 85.1528 22.9215 85.7505 22.4029C86.357 21.8755 86.6602 21.1372 86.6602 20.1879C86.6602 19.5463 86.4317 18.9794 85.9746 18.4872C85.5176 17.995 84.8452 17.7093 83.9574 17.6302C83.8695 17.639 83.7333 17.6434 83.5487 17.6434H77.4312V16.6941ZM89.508 13.7013C89.508 14.9318 89.0729 16.0437 88.2028 17.0369C89.0729 18.0037 89.508 19.0541 89.508 20.1879C89.508 21.2866 89.2311 22.2886 88.6774 23.1939C88.1324 24.0905 87.4029 24.7892 86.4888 25.2902C85.5835 25.7824 84.6035 26.0285 83.5487 26.0285H77.4312V25.0793H83.5487C84.9199 25.0793 86.0977 24.6222 87.0821 23.7081C88.0665 22.7852 88.5587 21.6118 88.5587 20.1879C88.5587 19.6781 88.4269 19.1156 88.1632 18.5003C87.9083 17.8763 87.5523 17.4017 87.0953 17.0765C88.0709 16.1623 88.5587 15.0373 88.5587 13.7013C88.5587 12.418 88.0577 11.3062 87.0557 10.3657C86.0537 9.41642 84.8847 8.94179 83.5487 8.94179H73.1068V27.9271H72.1576V7.99252H83.5487C84.5947 7.99252 85.5747 8.25181 86.4888 8.77039C87.4117 9.28018 88.1456 9.97895 88.6906 10.8667C89.2355 11.7456 89.508 12.6905 89.508 13.7013ZM89.2839 17.0896C90.0661 16.0437 90.4573 14.9142 90.4573 13.7013C90.4573 12.5147 90.1408 11.4116 89.508 10.3921C88.8839 9.36368 88.0402 8.55065 86.9766 7.95297C85.9131 7.3465 84.7705 7.04326 83.5487 7.04326H71.2083V27.9271H70.259V6.09399H83.5487C84.9375 6.09399 86.2339 6.43678 87.4381 7.12236C88.651 7.80794 89.6135 8.73963 90.3254 9.91742C91.0462 11.0864 91.4065 12.3477 91.4065 13.7013C91.4065 14.9933 91.0418 16.1272 90.3122 17.1028C91.0418 18.1136 91.4065 19.142 91.4065 20.1879C91.4065 21.3657 91.1956 22.4468 90.7737 23.4312C90.3518 24.4069 89.7805 25.2199 89.0597 25.8703C88.3478 26.5208 87.5172 27.0261 86.5679 27.3865C85.6187 27.7469 84.6123 27.9271 83.5487 27.9271H77.4312V26.9778H83.5487C84.4716 26.9778 85.355 26.8064 86.1988 26.4636C87.0425 26.112 87.7765 25.6374 88.4005 25.0397C89.0246 24.442 89.5212 23.7213 89.8903 22.8775C90.2683 22.0337 90.4573 21.1372 90.4573 20.1879C90.4573 19.766 90.3562 19.2606 90.154 18.6717C89.9607 18.0741 89.6706 17.5467 89.2839 17.0896Z" fill="white" fill-opacity="0.5"/>
<path d="M100.715 17.0633H106.437C107.307 17.0633 108.041 16.782 108.638 16.2195C109.245 15.6569 109.548 14.8571 109.548 13.8199C109.548 13.0553 109.232 12.3697 108.599 11.7632C107.966 11.1479 107.245 10.8403 106.437 10.8403H98.2887V27.9271H97.3394V9.89105H106.437C107.509 9.89105 108.454 10.291 109.271 11.0908C110.089 11.8819 110.497 12.7916 110.497 13.8199C110.497 15.0856 110.102 16.1008 109.311 16.8655C108.52 17.6302 107.562 18.0125 106.437 18.0125H100.715V17.0633ZM100.715 18.9618H106.437C107.808 18.9618 108.985 18.4828 109.97 17.5247C110.954 16.5579 111.447 15.3229 111.447 13.8199C111.447 12.5279 110.941 11.3941 109.93 10.4184C108.928 9.434 107.764 8.94179 106.437 8.94179H96.3902V27.9271H95.4409V7.99252H106.437C107.482 7.99252 108.463 8.2606 109.377 8.79676C110.3 9.33292 111.033 10.0537 111.578 10.959C112.123 11.8555 112.396 12.8092 112.396 13.8199C112.396 15.5515 111.807 17.0017 110.629 18.1707C109.46 19.331 108.063 19.9111 106.437 19.9111H100.715V18.9618ZM100.715 20.8603H106.437C107.667 20.8603 108.81 20.5571 109.864 19.9506C110.919 19.3441 111.763 18.5003 112.396 17.4192C113.029 16.3293 113.345 15.1296 113.345 13.8199C113.345 12.6334 113.029 11.5215 112.396 10.4843C111.772 9.43839 110.928 8.60339 109.864 7.97934C108.801 7.35528 107.658 7.04326 106.437 7.04326H94.4916V27.9271H93.5424V6.09399H106.437C107.816 6.09399 109.113 6.44997 110.326 7.16192C111.539 7.86507 112.501 8.81434 113.213 10.0097C113.934 11.1963 114.294 12.4664 114.294 13.8199C114.294 15.3845 113.956 16.76 113.279 17.9466C112.611 19.1332 111.701 20.0605 110.55 20.7285L113.002 27.9271H112L109.653 21.1767C109.302 21.3174 109.034 21.4141 108.849 21.4668L111.051 27.9271H110.049L107.9 21.6909C107.821 21.7085 107.54 21.7393 107.056 21.7832L109.1 27.9271H108.098L106.081 21.8096H105.224L107.148 27.9271H106.146L104.208 21.8096H100.715V20.8603ZM100.187 27.9271H99.2379V11.7896H106.437C107.025 11.7896 107.531 11.9917 107.953 12.3961C108.383 12.7916 108.599 13.2662 108.599 13.8199C108.599 15.3493 107.878 16.114 106.437 16.114H100.715V15.1647H106.437C106.814 15.1647 107.109 15.0681 107.32 14.8747C107.54 14.6725 107.649 14.3209 107.649 13.8199C107.649 13.5123 107.531 13.2574 107.294 13.0553C107.065 12.8443 106.779 12.7388 106.437 12.7388H100.187V27.9271Z" fill="white" fill-opacity="0.5"/>
<path d="M125.751 21.5195L126.134 20.5703H129.377L129.759 21.5195H125.751ZM125.013 23.4181L125.382 22.4688H130.115L130.524 23.4181H125.013ZM124.275 25.3166L124.644 24.3673H130.867L131.262 25.3166H124.275ZM116.562 27.9271H115.534L124.169 6.09399H125.198L133.82 27.9271H132.805L124.683 7.37286L116.562 27.9271ZM124.802 9.62737L125.343 10.8403L118.592 27.9271H117.577L124.802 9.62737ZM125.857 12.1324L126.358 13.4376L120.649 27.9271H119.621L125.857 12.1324ZM126.859 14.7428L127.36 16.0745L122.679 27.9271H121.664L126.859 14.7428ZM139.951 27.9271H138.922L130.3 6.09399H131.315L139.951 27.9271ZM129.272 6.09399L137.907 27.9271H136.892L128.256 6.09399H129.272ZM127.228 6.09399L135.864 27.9271H134.835L126.213 6.09399H127.228Z" fill="white" fill-opacity="0.5"/>
<path d="M147.308 6.09399H148.257V27.9271H147.308V6.09399ZM145.409 6.09399H146.358V27.9271H145.409V6.09399ZM143.511 6.09399H144.46V27.9271H143.511V6.09399ZM141.612 6.09399H142.561V27.9271H141.612V6.09399Z" fill="white" fill-opacity="0.5"/>
<path d="M166.267 17.4192L165.317 15.8503V6.09399H166.267V17.4192ZM168.165 20.5307L167.216 18.9354V6.09399H168.165V20.5307ZM170.064 23.6817L169.114 22.0733V6.09399H170.064V23.6817ZM156.457 16.6018L157.407 18.1707V27.9271H156.457V16.6018ZM154.559 13.4903L155.508 15.0856V27.9271H154.559V13.4903ZM152.66 10.3393L153.61 11.9478V27.9271H152.66V10.3393ZM152.99 6.09399H154.097L167.519 27.9271H166.412L152.99 6.09399ZM155.231 6.09399H156.352L169.76 27.9271H168.627L155.231 6.09399ZM157.459 6.09399H158.567L171.013 26.3845V6.09399H171.962V27.9271C171.962 27.9271 171.589 27.9271 170.841 27.9271L157.459 6.09399ZM151.711 7.63655V27.9271H150.762V6.09399C150.762 6.09399 151.14 6.09399 151.896 6.09399L165.278 27.9271H164.183L151.711 7.63655Z" fill="white" fill-opacity="0.5"/>
</svg>
