<svg width="300" height="300" viewBox="0 0 300 300" fill="none" xmlns="http://www.w3.org/2000/svg">
  <g clip-path="url(#clip0)">
  <path d="M150 0C133.708 0 121.161 13.593 121.161 29.8463C121.161 45.501 121.051 59.198 121.051 59.198H92.0838C91.5386 59.198 91.0111 59.2583 90.4908 59.3445H82.4341V87.4877H217.566V59.3445H209.509C208.989 59.2583 208.461 59.198 207.916 59.198H178.949C178.949 59.198 179.279 46.799 179.279 29.9377C179.279 14.2828 166.292 0 150 0ZM43.7988 28.5462V300H256.201V28.5462H188.91V48.2118H236.756V280.298H63.2631V48.2118H111.09V28.5462H43.7988ZM150 28.9123C155.338 28.9123 159.65 33.2072 159.65 38.5252C159.65 43.853 155.338 48.1565 150 48.1565C144.663 48.1565 140.35 43.8527 140.35 38.5252C140.35 33.2075 144.663 28.9123 150 28.9123ZM82.4341 106.567V116.199H92.0838V106.567H82.4341ZM111.401 106.751V116.382H217.566V106.751H111.401ZM82.4341 142.895V152.527H92.0838V142.895H82.4341ZM111.401 143.079V152.728H217.566V143.079H111.401ZM82.4341 179.224V188.855H92.0838V179.224H82.4341ZM111.401 179.425V189.056H217.566V179.425H111.401ZM82.4341 215.57V225.201H92.0838V215.57H82.4341ZM111.401 215.771V225.403H217.566V215.771H111.401ZM82.4341 251.898V261.53H92.0838V251.898H82.4341ZM111.401 252.1V261.731H217.566V252.1H111.401Z" fill="#B2BFCA" fill-opacity="0.2"/>
  </g>
  <defs>
    <clipPath id="clip0">
      <rect width="300" height="300" fill="white"/>
    </clipPath>
  </defs>
</svg>
