<svg width="213" height="52" viewBox="0 0 213 52" fill="none" xmlns="http://www.w3.org/2000/svg">
  <path d="M80.125 26.2682C80.125 19.7524 78.2667 16.4073 74.5497 16.2243C73.0705 16.1545 71.6271 16.3899 70.2221 16.9353C69.101 17.3362 68.3464 17.7336 67.9494 18.1349V33.6873C70.3269 35.1791 72.438 35.8726 74.2793 35.7634C78.1745 35.5053 80.125 32.3436 80.125 26.2682ZM84.7099 26.5384C84.7099 29.8486 83.9334 32.5964 82.3714 34.7813C80.6308 37.2543 78.2184 38.5278 75.1342 38.5976C72.8091 38.6714 70.4137 37.9434 67.9489 36.4167V50.552L63.9615 49.13V17.755C64.6159 16.9528 65.4582 16.2637 66.4787 15.6789C68.8521 14.2963 71.7354 13.5857 75.1297 13.5508L75.1861 13.6072C78.2882 13.5683 80.6782 14.8417 82.3579 17.4235C83.9244 19.7918 84.7099 22.8273 84.7099 26.5384ZM109.079 35.8153C109.079 40.2553 108.634 43.3297 107.744 45.0394C106.85 46.7487 105.148 48.1138 102.635 49.1304C100.598 49.9327 98.3948 50.369 96.0307 50.4433L95.3714 47.9313C97.7753 47.6047 99.468 47.2771 100.45 46.95C102.382 46.2959 103.708 45.2931 104.437 43.9495C105.021 42.855 105.309 40.7659 105.309 37.674V36.6359C102.583 37.8749 99.7254 38.4897 96.7374 38.4897C94.7739 38.4897 93.0423 37.8749 91.5501 36.6359C89.8749 35.2882 89.0375 33.579 89.0375 31.5073V14.916L93.0248 13.5508V30.25C93.0248 32.0335 93.6004 33.4076 94.752 34.3714C95.9036 35.3352 97.3958 35.7979 99.2237 35.7625C101.052 35.7232 103.01 35.0166 105.091 33.634V14.1522H109.078V35.8153H109.079ZM124.644 38.3796C124.207 38.4165 123.769 38.4353 123.331 38.436C121.075 38.436 119.317 37.9 118.061 36.8225C116.809 35.7455 116.181 34.2587 116.181 32.361V16.6601H113.45V14.1527H116.181V7.49286L120.164 6.07535V14.1527H124.644V16.6601H120.164V32.2519C120.164 33.7481 120.565 34.8077 121.367 35.4274C122.056 35.9375 123.152 36.2297 124.643 36.3039V38.3796H124.644ZM148.786 38.0526H144.799V22.6658C144.799 21.1002 144.433 19.7524 143.704 18.6276C142.862 17.3537 141.693 16.717 140.192 16.717C138.364 16.717 136.078 17.6808 133.334 19.6084V38.0526H129.347V1.2738L133.334 0.0178223V16.7693C135.882 14.9156 138.665 13.9867 141.689 13.9867C143.8 13.9867 145.51 14.6976 146.819 16.1152C148.132 17.5322 148.786 19.2987 148.786 21.4098V38.0526H148.786ZM169.979 25.6404C169.979 23.1369 169.504 21.0697 168.556 19.4343C167.431 17.4414 165.682 16.3899 163.317 16.2812C158.946 16.534 156.764 19.6652 156.764 25.6668C156.764 28.4186 157.218 30.7171 158.134 32.562C159.303 34.9128 161.057 36.0731 163.396 36.0337C167.784 35.9983 169.979 32.5355 169.979 25.6404ZM174.346 25.6663C174.346 29.2298 173.434 32.1955 171.615 34.5634C169.612 37.2154 166.847 38.5452 163.317 38.5452C159.819 38.5452 157.092 37.2149 155.125 34.5634C153.34 32.1955 152.45 29.2298 152.45 25.6663C152.45 22.3172 153.414 19.4996 155.342 17.2056C157.38 14.7719 160.058 13.5508 163.37 13.5508C166.68 13.5508 169.376 14.7719 171.453 17.2056C173.382 19.4996 174.346 22.3172 174.346 25.6663ZM197.205 38.0526H193.217V21.7937C193.217 20.0102 192.681 18.6186 191.608 17.6154C190.535 16.6167 189.103 16.1326 187.319 16.1715C185.427 16.2064 183.624 16.8257 181.915 18.0253V38.0526H177.927V17.5327C180.222 15.8628 182.334 14.7719 184.262 14.2618C186.081 13.7866 187.686 13.5508 189.069 13.5508C190.015 13.5508 190.906 13.6421 191.743 13.8256C193.309 14.1876 194.583 14.8592 195.565 15.8449C196.66 16.9353 197.205 18.2432 197.205 19.7744V38.0526Z" fill="white"/>
  <path d="M24.5801 1.42085C22.5284 1.43024 20.5694 1.6052 18.8459 1.91035C13.7677 2.80748 12.8458 4.68452 12.8458 8.14686V12.7193H24.846V14.2433H8.34187C4.85442 14.2433 1.80021 16.3392 0.845103 20.3259C-0.25681 24.8957 -0.305595 27.7473 0.845103 32.5188C1.69817 36.0707 3.7355 38.6014 7.22295 38.6014H11.3491V33.1202C11.3491 29.1603 14.7761 25.6675 18.8459 25.6675H30.8322C34.1688 25.6675 36.8323 22.9211 36.8323 19.5711V8.14642C36.8323 4.89527 34.0887 2.45266 30.8322 1.90991C28.7702 1.56716 26.6317 1.411 24.5801 1.42085ZM18.0904 5.09796C19.3301 5.09796 20.3421 6.12664 20.3421 7.39113C20.3421 8.65114 19.3297 9.67042 18.0904 9.67042C16.8466 9.67042 15.8386 8.65158 15.8386 7.39113C15.8386 6.12664 16.8466 5.09796 18.0904 5.09796Z" fill="url(#paint0_linear)"/>
  <path d="M38.3288 14.2429V19.5702C38.3288 23.7006 34.8262 27.1768 30.8321 27.1768H18.8457C15.5624 27.1768 12.8456 29.9859 12.8456 33.2733V44.697C12.8456 47.9486 15.6734 49.861 18.8457 50.7935C22.6443 51.9103 26.287 52.1121 30.8321 50.7935C33.8532 49.9192 36.8322 48.1589 36.8322 44.697V40.125H24.8458V38.601H42.8323C46.3202 38.601 47.6195 36.1687 48.8324 32.5184C50.0856 28.7608 50.0323 25.1463 48.8324 20.3255C47.9704 16.8547 46.3242 14.2429 42.8323 14.2429H38.3288ZM31.5871 43.173C32.8309 43.173 33.8388 44.1919 33.8388 45.4523C33.8388 46.7168 32.8309 47.7455 31.5871 47.7455C30.3474 47.7455 29.3354 46.7168 29.3354 45.4523C29.3354 44.1923 30.3478 43.173 31.5871 43.173Z" fill="url(#paint1_linear)"/>
  <path d="M204.97 10.5984H205.669V6.21524H207.324V5.69263H203.313V6.21524H204.969V10.5984H204.97ZM207.945 10.5984H208.542V6.59513L209.838 10.598H210.502L211.854 6.60855V10.5984H212.505V5.69307H211.643L210.167 9.89594L208.908 5.69307H207.945V10.5984Z" fill="white"/>
  <defs>
    <linearGradient id="paint0_linear" x1="-1.18328" y1="2.84864" x2="26.4828" y2="26.4274" gradientUnits="userSpaceOnUse">
      <stop stop-color="#5A9FD4"/>
      <stop offset="1" stop-color="#306998"/>
    </linearGradient>
    <linearGradient id="paint1_linear" x1="36.8725" y1="41.1142" x2="26.9478" y2="27.2044" gradientUnits="userSpaceOnUse">
      <stop stop-color="#FFD43B"/>
      <stop offset="1" stop-color="#FFE873"/>
    </linearGradient>
  </defs>
</svg>
